<?xml version="1.0" standalone="no"?><!DOCTYPE svg PUBLIC "-//W3C//DTD SVG 1.1//EN" "http://www.w3.org/Graphics/SVG/1.1/DTD/svg11.dtd"><svg class="icon" height="512" viewBox="0 0 1024 1024" version="1.1" xmlns="http://www.w3.org/2000/svg"><path d="M211.992667 523.252l416.185333 0c12.636667 0 23.196667-10.56 23.196667-23.194667 0-12.734667-10.56-23.204667-23.196667-23.204667L211.992667 476.852667c-12.661333 0-23.23 10.464667-23.23 23.204667C188.762667 512.692 199.331333 523.252 211.992667 523.252L211.992667 523.252zM414.152 584.915333 211.996 584.915333c-12.661333 0-23.23 10.463333-23.23 23.196667 0 12.636667 10.568 23.2 23.23 23.2l202.156 0c12.664667 0 23.221333-10.563333 23.221333-23.2C437.374 595.378667 426.817333 584.915333 414.152 584.915333L414.152 584.915333zM211.992667 417.267333l311.519333 0c12.636667 0 23.2-10.568 23.2-23.196667 0-12.643333-10.563333-23.203333-23.2-23.203333L211.992667 370.867333c-12.661333 0-23.23 10.564667-23.23 23.203333C188.762667 406.705333 199.331333 417.267333 211.992667 417.267333L211.992667 417.267333zM396.867333 297.066c12.634667 0 23.204667-10.564667 23.204667-23.203333 0-12.634667-10.57-23.196667-23.204667-23.196667L211.992667 250.666c-12.661333 0-23.23 10.561333-23.23 23.196667 0 12.638 10.568 23.203333 23.23 23.203333L396.867333 297.066 396.867333 297.066zM382.679333 882.044667c-0.3 0-0.595333 0.033333-0.898667 0.033333L111.501333 882.078c-10.564667 0-19.164667-8.59-19.164667-19.16L92.336667 164.564667c0-10.568 8.6-19.164667 19.164667-19.164667l503.104 0 36.77 0 88.886667 0c10.57 0 19.163333 8.596667 19.163333 19.164667l0.4 191.084667 0.06 0c0.093333 21.234667 17.326667 38.421333 38.57 38.421333 21.303333 0 38.57-17.273333 38.57-38.576667 0.003333-1.068-0.053333-2.123333-0.136667-3.168667l0.266667-187.761333c0-53.426667-43.47-96.901333-96.893333-96.901333l-88.886667 0-36.77 0L111.501333 67.662667c-53.423333 0-96.898 43.468-96.898 96.901333l0 697.766667c0 53.43 43.466667 96.886667 96.898 96.886667l271.204 0 0-0.03c21.291333-0.013333 38.541333-17.273333 38.541333-38.56C421.247333 899.314667 403.984 882.044667 382.679333 882.044667L382.679333 882.044667zM881.631333 389.132667l-59.11 53.434667 126.456667 114.681333 59.183333-53.708L881.631333 389.132667zM485.754 747.691333l-35.814667 146.853333 162.252667-32.293333 13.83-12.453333-126.544667-114.54L485.754 747.691333zM521.442 715.258l126.496667 114.62 287.232667-260.266-126.396667-114.541333L521.442 715.258z" /></svg>