<svg width="1559" height="1558" xmlns="http://www.w3.org/2000/svg" xmlns:xlink="http://www.w3.org/1999/xlink" overflow="hidden"><defs><clipPath id="clip0"><rect x="458" y="417" width="1559" height="1558"/></clipPath></defs><g clip-path="url(#clip0)" transform="translate(-458 -417)"><path d="M458 502.343 458 502.344 458 502.344ZM543.4 417 1237.21 417 1240.72 417.354 1309.98 420.325C1691.13 455.498 1995.53 765.62 2015.92 1155.3 2037.67 1570.96 1728.59 1930.27 1314.11 1971.18 925.528 2009.53 573.022 1755.34 481.005 1384.04L466.87 1311.98 466.052 1309.35C464.907 1303.77 464.305 1297.99 464.305 1292.06 464.305 1244.69 502.797 1206.29 550.279 1206.29 591.826 1206.29 626.489 1235.69 634.505 1274.78L635.4 1283.63 635.838 1283.56C682.669 1604.83 973.954 1832.54 1297.25 1800.63 1620.55 1768.72 1861.63 1488.46 1844.67 1164.25 1827.7 840.035 1558.69 586.427 1233.82 588.386L1233.82 587.688 958.578 587.688 958.578 1205.14C958.578 1246.38 929.304 1280.79 890.388 1288.75L873.178 1290.48 855.967 1288.75C817.051 1280.79 787.777 1246.38 787.777 1205.14L787.777 587.687 543.4 587.687C502.131 587.687 467.698 558.433 459.735 519.543L458 502.344 459.735 485.144C467.698 446.254 502.131 417 543.4 417Z" fill="#FFFFFF" fill-rule="evenodd"/><path d="M1237.47 667 1237.47 667C1284.68 667 1322.94 705.253 1322.94 752.439L1322.94 1235.4 1571.63 1302.01C1617.23 1314.22 1644.28 1361.07 1632.07 1406.65L1632.07 1406.65C1619.85 1452.23 1572.98 1479.28 1527.39 1467.07L1222.34 1385.36 1207.86 1378.17 1204.2 1377.43 1198.13 1373.34 1191.94 1370.27 1189.64 1367.61 1177.03 1359.12C1161.57 1343.66 1152 1322.3 1152 1298.71L1152 752.439C1152 705.252 1190.27 667 1237.47 667Z" fill="#FFFFFF" fill-rule="evenodd"/></g></svg>